<svg xmlns="http://www.w3.org/2000/svg" width="1200" height="520" viewBox="0 0 1200 520">
  <rect width="1200" height="520" fill="#f4f1e8"/>
  <style>
    .title{font:700 26px sans-serif;fill:#17392f}.label{font:700 17px sans-serif;fill:#17392f}.small{font:400 13px sans-serif;fill:#5f695f}.box{fill:#fbfaf5;stroke:#9da99f;stroke-width:2}.core{fill:#17392f;stroke:#17392f;stroke-width:2}.coretext{font:700 18px sans-serif;fill:#fff}.coresmall{font:400 13px sans-serif;fill:#c5d5cd}.arrow{stroke:#9a6722;stroke-width:3;fill:none;marker-end:url(#arrow)}
  </style>
  <defs><marker id="arrow" viewBox="0 0 10 10" refX="9" refY="5" markerWidth="7" markerHeight="7" orient="auto"><path d="M0 0L10 5L0 10z" fill="#9a6722"/></marker></defs>
  <text x="60" y="54" class="title">估值雷达：系统架构</text>
  <rect x="60" y="100" width="210" height="105" rx="8" class="box"/><text x="85" y="135" class="label">外部证据</text><text x="85" y="164" class="small">行情 · SEC财报 · 新闻</text><text x="85" y="185" class="small">Stooq → Yahoo备用</text>
  <rect x="370" y="85" width="255" height="135" rx="8" class="core"/><text x="398" y="126" class="coretext">估值研究核心</text><text x="398" y="156" class="coresmall">超跌初筛 → 基本面检查</text><text x="398" y="181" class="coresmall">LLM选模型 → 确定性计算</text><text x="398" y="202" class="coresmall">市场风险门槛 → 推荐</text>
  <rect x="735" y="100" width="210" height="105" rx="8" class="box"/><text x="760" y="135" class="label">持久化快照</text><text x="760" y="164" class="small">机会 · 估值 · 风险</text><text x="760" y="185" class="small">日报 · 校准 · 运行状态</text>
  <rect x="990" y="100" width="150" height="105" rx="8" class="box"/><text x="1017" y="135" class="label">输出渠道</text><text x="1017" y="164" class="small">React WebUI</text><text x="1017" y="185" class="small">Slack · Email</text>
  <path d="M270 152H365" class="arrow"/><path d="M625 152H730" class="arrow"/><path d="M945 152H985" class="arrow"/>
  <rect x="230" y="315" width="220" height="100" rx="8" class="box"/><text x="257" y="350" class="label">统一启动与调度</text><text x="257" y="379" class="small">jobs.run_all</text><text x="257" y="400" class="small">行情 · 夜间研究 · 周末校准</text>
  <rect x="520" y="315" width="220" height="100" rx="8" class="box"/><text x="547" y="350" class="label">语言模型边界</text><text x="547" y="379" class="small">远程LLM：分析与模型路由</text><text x="547" y="400" class="small">本地SLM：仅文字转述</text>
  <rect x="810" y="315" width="220" height="100" rx="8" class="box"/><text x="837" y="350" class="label">审计与反馈</text><text x="837" y="379" class="small">Manifest · Change Feed</text><text x="837" y="400" class="small">3/6/12/24月短债与市场校准</text>
  <path d="M450 365H515" class="arrow"/><path d="M740 365H805" class="arrow"/><path d="M630 310V225" class="arrow"/>
</svg>
